<?xml version="1.0" encoding="UTF-8"?><svg id="Layer_1" xmlns="http://www.w3.org/2000/svg" viewBox="0 0 164 31.49"><defs><style>.cls-1{fill:#2b7cb6;}</style></defs><path class="cls-1" d="M12.28,6.19C4.24,6.19,0,12.39,0,18.81c0,7.06,4.76,12.68,12.28,12.68,4.78,0,9.72-3.24,11.22-8.25h-5.64c-1.21,2.17-3.36,3.45-5.57,3.45-3.07,0-5.94-2-6.59-6.19H23.92c.16-.76,.25-1.53,.25-2.33,0-5.63-4.29-11.98-11.88-11.98Zm-6.49,10.45c.81-3.89,3.64-5.64,6.49-5.64s5.65,2.01,6.39,5.64H5.79Z"/><path class="cls-1" d="M82.22,6.19c-8.04,0-12.28,6.2-12.28,12.63,0,7.06,4.76,12.68,12.28,12.68,4.78,0,9.72-3.24,11.22-8.25h-5.64c-1.21,2.17-3.36,3.45-5.57,3.45-3.07,0-5.94-2-6.59-6.19h18.22c.16-.76,.25-1.53,.25-2.33,0-5.63-4.29-11.98-11.88-11.98Zm-6.49,10.45c.81-3.89,3.64-5.64,6.49-5.64s5.65,2.01,6.39,5.64h-12.87Z"/><path class="cls-1" d="M32.48,13.32c0-1.53,1.16-2.67,3.66-2.67,2.68,0,4.54,1.39,5.2,3.81h3.91V6.68h-3.42l-.4,1.68c-1.55-1.45-3.63-2.18-6.24-2.18-5.19,0-8.42,3-8.42,7.13,0,8.9,13.17,6.36,13.17,10.74,0,1.73-1.28,2.97-3.91,2.97-2.83,0-5.05-1.52-5.64-3.79h-3.96v7.75h3.42l.45-2.08c1.55,1.72,3.88,2.57,6.98,2.57,4.85,0,8.47-2.69,8.47-7.28,0-9.25-13.27-6.12-13.27-10.89Z"/><path class="cls-1" d="M54.49,13.32c0-1.53,1.16-2.67,3.66-2.67,2.68,0,4.54,1.39,5.2,3.81h3.91V6.68h-3.42l-.4,1.68c-1.55-1.45-3.63-2.18-6.24-2.18-5.19,0-8.42,3-8.42,7.13,0,8.9,13.17,6.36,13.17,10.74,0,1.73-1.28,2.97-3.91,2.97-2.83,0-5.05-1.52-5.64-3.79h-3.96v7.75h3.42l.45-2.08c1.55,1.72,3.88,2.57,6.98,2.57,4.85,0,8.47-2.69,8.47-7.28,0-9.25-13.27-6.12-13.27-10.89Z"/><path class="cls-1" d="M120.1,16.54c0-7.07-4.13-10.35-8.81-10.35-3.51,0-6.03,1.74-7.28,3.86v-3.37h-8.52v3.72l3.32,.64v15.59l-3.22,.64v3.72h12.03v-3.72l-3.02-.64v-8.76c0-3.32,1.64-6.44,5.25-6.44,3.34,0,4.51,2.45,4.51,5.74v9.45l-3.02,.64v3.72h12.03v-3.72l-3.27-.64v-10.1Z"/><path class="cls-1" d="M132.31,22.76V11.31h5.4V6.68h-5.4V0h-5.74V6.68h-3.86v4.63h3.86v11.76c0,6.29,3.73,8.27,7.82,8.27,1.32,0,2.54-.15,3.66-.45v-4.79c-3.72,.77-5.74-.25-5.74-3.34Z"/><path class="cls-1" d="M160.73,26.63V15.3c0-5.03-3.48-9.11-10.05-9.11-6.15,0-9.6,3.65-10,7.92h5.45c.4-1.92,1.96-3.22,4.51-3.22,2.08,0,4.46,.99,4.46,4.41v.5l-5.4,.69c-6.8,.83-10.2,3.48-10.2,7.97,0,3.23,2.19,7.03,8.27,7.03,3.81,0,6.65-1.9,7.92-3.86v3.37h8.32v-3.72l-3.27-.64Zm-5.64-6.33c0,4.2-2.72,6.68-6.14,6.68-2.59,0-3.76-1.22-3.76-3.02,0-1.98,1.68-3.17,5.05-3.56l4.85-.59v.5Z"/></svg>